<svg height="50" width="50" viewBox="0 0 512 512" xmlns="http://www.w3.org/2000/svg">
    <path d="m467.761 223.677a7.21 7.21 0 0 0 -6.567-4.646l-60.41-1.279c-.054 0-.107 0-.162 0a7.188 7.188 0 0 0 -6.6 4.378l-37.155 85.791a7.4 7.4 0 0 0 .559 6.951 7.185 7.185 0 0 0 5.895 3.323l61.4 1.3c-2.331 46.2-37.361 83.2-80.461 83.644-21.654.244-42.135-8.728-57.656-25.2-15.323-16.263-24-37.929-24.566-61.142l-.038-212.297h147.607a6 6 0 0 0 0-12h-301.864a6 6 0 0 0 0 12h142.257l.03 210.183a6.024 6.024 0 0 0 -.047.763c0 .489.036.972.047 1.46v.39c-.232 24.433-9 47.288-24.678 64.351-15.339 16.693-35.5 25.853-56.847 25.853-.254 0-.511 0-.766 0-43.592-.446-78.923-39.306-80.51-87.506l61.192.988h.119a7.177 7.177 0 0 0 5.9-3.1 7.4 7.4 0 0 0 .807-6.935l-34.147-87.128a7.2 7.2 0 0 0 -6.591-4.616l-60.421-.975a7.134 7.134 0 0 0 -6.739 4.409l-36.749 85.98a7.4 7.4 0 0 0 .595 6.95 7.179 7.179 0 0 0 5.91 3.29l58.12.939c1.525 54.851 42.183 99.185 92.394 99.7q.448 0 .9 0c24.743 0 48.035-10.536 65.676-29.732a104.55 104.55 0 0 0 22.306-38.362 101.384 101.384 0 0 0 21.368 34.76c17.628 18.71 40.891 28.977 65.6 28.977h.915c49.579-.509 89.853-42.746 92.34-95.389l57.911 1.228h.151a7.181 7.181 0 0 0 5.881-3.077 7.4 7.4 0 0 0 .841-6.93zm-410.629 6.6 53.951.871 30.462 77.716-117.194-1.891zm374.383 77.358a6.008 6.008 0 0 0 -.674-.04h-.059c-.1 0-.2.012-.306.018l-59.854-1.269 33.143-76.528 53.945 1.144 30.1 77.869z"/>
</svg>