<svg height="50" width="50" xmlns="http://www.w3.org/2000/svg" viewBox="0 0 512 512">
    <g>
        <path d="m155.752 193.445c4.143 0 7.5-3.358 7.5-7.5s-3.357-7.5-7.5-7.5h-7.123c-4.143 0-7.5 3.358-7.5 7.5s3.357 7.5 7.5 7.5z"/>
        <path d="m106.838 164.289h7.124c4.143 0 7.5-3.358 7.5-7.5s-3.357-7.5-7.5-7.5h-7.124c-4.143 0-7.5 3.358-7.5 7.5s3.357 7.5 7.5 7.5z"/>
        <path d="m190.419 164.289h7.124c4.143 0 7.5-3.358 7.5-7.5s-3.357-7.5-7.5-7.5h-7.124c-4.143 0-7.5 3.358-7.5 7.5s3.357 7.5 7.5 7.5z"/>
        <path d="m106.838 217.36h7.124c4.143 0 7.5-3.358 7.5-7.5s-3.357-7.5-7.5-7.5h-7.124c-4.143 0-7.5 3.358-7.5 7.5s3.357 7.5 7.5 7.5z"/>
        <path d="m190.419 217.36h7.124c4.143 0 7.5-3.358 7.5-7.5s-3.357-7.5-7.5-7.5h-7.124c-4.143 0-7.5 3.358-7.5 7.5s3.357 7.5 7.5 7.5z"/>
        <path d="m356.249 178.445c-4.143 0-7.5 3.358-7.5 7.5s3.357 7.5 7.5 7.5h7.123c4.143 0 7.5-3.358 7.5-7.5s-3.357-7.5-7.5-7.5z"/>
        <path d="m321.582 149.289h-7.124c-4.143 0-7.5 3.358-7.5 7.5s3.357 7.5 7.5 7.5h7.124c4.143 0 7.5-3.358 7.5-7.5s-3.357-7.5-7.5-7.5z"/>
        <path d="m398.039 164.289h7.123c4.143 0 7.5-3.358 7.5-7.5s-3.357-7.5-7.5-7.5h-7.123c-4.143 0-7.5 3.358-7.5 7.5s3.357 7.5 7.5 7.5z"/>
        <path d="m321.582 202.36h-7.124c-4.143 0-7.5 3.358-7.5 7.5s3.357 7.5 7.5 7.5h7.124c4.143 0 7.5-3.358 7.5-7.5s-3.357-7.5-7.5-7.5z"/>
        <path d="m398.039 217.36h7.123c4.143 0 7.5-3.358 7.5-7.5s-3.357-7.5-7.5-7.5h-7.123c-4.143 0-7.5 3.358-7.5 7.5s3.357 7.5 7.5 7.5z"/>
        <path d="m484.061 195.43c-4.668 0-9.069 1.157-12.94 3.189v-52.934c0-31.593-25.703-57.296-57.296-57.296h-26.94c-4.143 0-7.5 3.358-7.5 7.5s3.357 7.5 7.5 7.5h26.94c23.322 0 42.296 18.974 42.296 42.296v117.575h-192.621v-117.575c0-23.322 18.974-42.296 42.296-42.296h51.102c4.143 0 7.5-3.358 7.5-7.5s-3.357-7.5-7.5-7.5h-51.102c-21.309 0-39.926 11.702-49.796 29.01-9.87-17.307-28.487-29.01-49.796-29.01h-108.028c-17.896 0-34.44 8.145-45.39 22.346-2.529 3.281-1.92 7.99 1.36 10.519 3.279 2.527 7.988 1.921 10.519-1.36 8.087-10.489 20.302-16.505 33.511-16.505h108.028c23.322 0 42.296 18.974 42.296 42.296v117.575h-192.62v-115.883c0-4.142-3.357-7.5-7.5-7.5s-7.5 3.358-7.5 7.5v51.241c-3.872-2.032-8.272-3.189-12.939-3.189-15.407.001-27.941 12.535-27.941 27.941v67.71c0 43.34 35.26 78.6 78.601 78.6h9.077l-9.485 17.021c-4.33 7.771-4.226 16.989.281 24.659 4.506 7.671 12.508 12.25 21.404 12.25 8.997 0 17.307-4.882 21.686-12.741l22.953-41.189h96.49c4.143 0 7.5-3.357 7.5-7.5s-3.357-7.5-7.5-7.5h-162.406c-35.069 0-63.601-28.53-63.601-63.6v-67.71c0-7.135 5.805-12.94 12.94-12.94s12.939 5.805 12.939 12.94v67.71c0 20.799 16.922 37.72 37.721 37.72h354.8c20.799 0 37.72-16.921 37.72-37.72v-67.71c0-7.135 5.805-12.94 12.94-12.94s12.939 5.805 12.939 12.94v67.71c0 35.069-28.53 63.6-63.6 63.6h-162.405c-4.143 0-7.5 3.357-7.5 7.5s3.357 7.5 7.5 7.5h96.49l22.953 41.189c4.379 7.859 12.688 12.741 21.686 12.741 8.896 0 16.897-4.579 21.403-12.249 4.507-7.67 4.612-16.889.282-24.659l-9.486-17.022h9.078c43.34 0 78.6-35.26 78.6-78.6v-67.71c0-15.406-12.533-27.94-27.939-27.94zm-356.716 174.25-18.885 33.889c-1.732 3.11-5.021 5.042-8.582 5.042-3.573 0-6.661-1.767-8.472-4.849-1.81-3.08-1.851-6.637-.11-9.759l13.554-24.323zm-71.465-78.599v-12.82h192.62v35.54h-169.899c-12.529-.001-22.721-10.193-22.721-22.72zm400.24 0c0 12.527-10.192 22.72-22.72 22.72h-169.9v-35.54h192.62zm-35.415 102.922c1.739 3.122 1.699 6.679-.111 9.76s-4.897 4.848-8.471 4.848c-3.561 0-6.85-1.932-8.582-5.042l-18.885-33.889h22.495z"/>
    </g>
</svg>