<svg viewBox="0 -16 480 480" height="50" width="50" xmlns="http://www.w3.org/2000/svg">
    <path d="m320 352h-256c-17.648438 0-32 14.351562-32 32s14.351562 32 32 32h256c17.648438 0 32-14.351562 32-32s-14.351562-32-32-32zm-16 32c0 8.824219-7.175781 16-16 16s-16-7.175781-16-16 7.175781-16 16-16 16 7.175781 16 16zm-224 0c0-8.824219 7.175781-16 16-16s16 7.175781 16 16-7.175781 16-16 16-16-7.175781-16-16zm43.550781-16h40.90625c-2.761719 4.726562-4.457031 10.144531-4.457031 16s1.695312 11.273438 4.449219 16h-40.90625c2.761719-4.726562 4.457031-10.144531 4.457031-16s-1.695312-11.273438-4.449219-16zm52.449219 16c0-8.824219 7.175781-16 16-16s16 7.175781 16 16-7.175781 16-16 16-16-7.175781-16-16zm43.550781-16h40.90625c-2.761719 4.726562-4.457031 10.144531-4.457031 16s1.695312 11.273438 4.449219 16h-40.90625c2.761719-4.726562 4.457031-10.144531 4.457031-16s-1.695312-11.273438-4.449219-16zm-171.550781 16c0-8.824219 7.175781-16 16-16h4.449219c-2.753907 4.726562-4.449219 10.144531-4.449219 16s1.695312 11.273438 4.449219 16h-4.449219c-8.824219 0-16-7.175781-16-16zm272 16h-4.449219c2.753907-4.726562 4.449219-10.144531 4.449219-16s-1.695312-11.273438-4.449219-16h4.449219c8.824219 0 16 7.175781 16 16s-7.175781 16-16 16zm0 0"/>
    <path d="m435.328125 104.167969-102.113281-94.816407c-6.496094-6.023437-14.957032-9.351562-23.824219-9.351562h-2.375c-19.304687 0-35.015625 15.703125-35.015625 35.015625 0 4.398437.992188 8.601563 2.527344 12.570313l-197.582032 176.414062c-6.113281 0-11.59375 3.390625-14.3125 8.839844l-11.890624 23.777344c-10.703126 2.414062-18.742188 11.957031-18.742188 23.382812v32c0 5.320312 1.800781 10.199219 4.742188 14.183594-21.679688 10.265625-36.742188 32.289062-36.742188 57.816406 0 35.289062 28.710938 64 64 64h256c35.289062 0 64-28.710938 64-64 0-21.191406-10.398438-39.960938-26.320312-51.617188l-38.710938-113.3125c-5.519531-16.191406-20.746094-27.070312-37.847656-27.070312h-48.679688l89.480469-100.214844 70.078125 56.0625v12.152344c0 13.230469-10.769531 24-24 24h-12.945312l16.128906 32.246094c9.792968 19.585937 29.472656 31.753906 51.367187 31.753906 31.671875 0 57.449219-25.769531 57.449219-57.441406v-38.558594c0-25.34375-19.761719-46.113281-44.671875-47.832031zm-128.3125-88.167969h2.375c4.816406 0 9.410156 1.808594 12.9375 5.078125l98.144531 91.136719-21.066406 21.066406-104.261719-83.417969c-4.542969-3.632812-7.144531-9.039062-7.144531-14.847656 0-10.488281 8.527344-19.015625 19.015625-19.015625zm-179.015625 240h-59.054688l8-16h51.054688zm240 128c0 26.472656-21.527344 48-48 48h-256c-26.472656 0-48-21.527344-48-48s21.527344-48 48-48h256c26.472656 0 48 21.527344 48 48zm-160-96h83.878906l9.425782 32h-93.304688zm0-16v-32h69.753906l9.421875 32zm95.832031-47.761719 33.550781 98.226563c-5.535156-1.570313-11.351562-2.464844-17.382812-2.464844h-2.015625l-24.878906-84.511719c-1.992188-6.769531-8.304688-11.488281-15.351563-11.488281h-69.753906c-8.824219 0-16 7.175781-16 16v80h-136c-4.414062 0-8-3.59375-8-8v-32c0-4.40625 3.585938-8 8-8h110.246094l11.449218-45.824219c2.679688-10.695312 12.257813-18.175781 23.289063-18.175781h80.136719c10.261718 0 19.382812 6.527344 22.710937 16.238281zm-92.847656-32.238281h-10c-18.390625 0-34.34375 12.457031-38.808594 30.296875l-8.421875 33.703125h-9.753906v-16c0-8.824219-7.175781-16-16-16h-27.023438l182.695313-163.121094c.519531.472656.921875 1.03125 1.472656 1.480469l24.261719 19.417969zm211.566406 40c-15.796875 0-30-8.777344-37.0625-22.910156l-5.472656-10.9375c16.207031-5.113282 27.984375-20.28125 27.984375-38.152344v-12.6875l27.160156-27.160156c13.464844 1.320312 24.382813 11.070312 27.703125 23.839844h-30.863281v16h32v16h-32v16h31.855469c-.785157 22.175781-18.945313 40.007812-41.304688 40.007812zm0 0"/>
    <path d="m320 40c0 4.417969-3.582031 8-8 8s-8-3.582031-8-8 3.582031-8 8-8 8 3.582031 8 8zm0 0"/>
</svg>