<svg viewBox="0 20 486.421 486.421" height="50" width="50" xmlns="http://www.w3.org/2000/svg">
    <g>
        <path d="M480.084,393.433L287.185,44.384c-8.977-16.242-25.415-25.94-43.974-25.94c-18.559,0-34.997,9.697-43.974,25.94 L6.338,393.433c-8.691,15.726-8.43,34.354,0.699,49.83c9.129,15.476,25.307,24.715,43.274,24.715H436.11 c17.967,0,34.145-9.239,43.274-24.715C488.513,427.787,488.775,409.159,480.084,393.433z M463.02,433.608 c-5.677,9.624-15.737,15.369-26.91,15.369H50.311c-11.173,0-21.233-5.746-26.91-15.369s-5.839-21.206-0.435-30.985 L215.865,53.575c5.582-10.101,15.805-16.131,27.345-16.131c11.541,0,21.763,6.03,27.345,16.13l192.9,349.049 C468.859,412.402,468.697,423.985,463.02,433.608z"/>
        <path d="M264.881,246.464h-14.937l35.686-50.779c8.038-11.44,5.272-27.288-6.168-35.329c-5.541-3.894-12.266-5.394-18.94-4.234 c-6.675,1.164-12.495,4.859-16.39,10.401l-63.757,90.719c-5.462,7.774-6.136,17.841-1.756,26.272 c4.381,8.431,13.004,13.669,22.505,13.669h18.616l-40.276,66.124c-7.274,11.942-3.475,27.577,8.467,34.85 c3.979,2.422,8.535,3.703,13.179,3.703c8.927-0.001,17.029-4.55,21.671-12.17l63.758-104.674 c4.763-7.818,4.936-17.633,0.452-25.614C282.508,251.422,274.036,246.464,264.881,246.464z M270.312,275.131l-63.757,104.674 c-1.166,1.912-3.202,3.054-5.448,3.055c-1.17,0-2.278-0.313-3.293-0.931c-2.995-1.824-3.948-5.744-2.124-8.739l49.07-80.566 c1.787-2.933,1.852-6.602,0.17-9.596c-1.682-2.993-4.849-4.846-8.283-4.846h-35.526c-2.383,0-4.546-1.314-5.644-3.428 c-1.098-2.115-0.929-4.64,0.441-6.589l63.757-90.719c1.222-1.737,3.209-2.675,5.218-2.681c1.268-0.004,2.545,0.364,3.644,1.136 c2.869,2.016,3.563,5.991,1.547,8.86l-46.201,65.74c-2.038,2.901-2.293,6.695-0.658,9.841c1.634,3.147,4.884,5.121,8.43,5.121 h33.225c2.296,0,4.421,1.243,5.544,3.244C271.55,270.708,271.506,273.171,270.312,275.131z"/>
        <path d="M95.96,410.41h-39.9c-5.246,0-9.5,4.254-9.5,9.5c0,5.246,4.254,9.5,9.5,9.5h39.9c5.247,0,9.5-4.254,9.5-9.5 C105.46,414.664,101.206,410.41,95.96,410.41z"/>
        <path d="M417.7,360.117c-2.612-4.55-8.417-6.123-12.968-3.511c-4.551,2.612-6.123,8.417-3.511,12.968l19.862,34.605 c1.757,3.06,4.956,4.773,8.249,4.773c1.603,0,3.229-0.407,4.719-1.262c4.551-2.612,6.123-8.417,3.511-12.968L417.7,360.117z"/>
        <path d="M139.66,410.41h-6.65c-5.246,0-9.5,4.254-9.5,9.5c0,5.246,4.254,9.5,9.5,9.5h6.65c5.247,0,9.5-4.254,9.5-9.5 C149.16,414.664,144.906,410.41,139.66,410.41z"/>
    </g>
</svg>