<svg viewBox="-10 -30 550 550" height="50" width="50" xmlns="http://www.w3.org/2000/svg">
    <g>
        <path d="m7.5 159.04h15.54c4.143 0 7.5-3.357 7.5-7.5 0-4.142-3.357-7.5-7.5-7.5h-15.54c-4.143 0-7.5 3.358-7.5 7.5 0 4.143 3.357 7.5 7.5 7.5zm489.5 158.285v-98.493c0-41.243-33.554-74.797-74.797-74.797h-65.958c-3.484-17.096-18.635-30-36.745-30h-23.06v-24.143c10.396-.459 18.983-8.002 21.032-17.911h49.561c8.551 13.115 23.092 21.09 38.967 21.09 25.662 0 46.54-20.873 46.54-46.53 0-25.663-20.878-46.541-46.54-46.541-15.87 0-30.411 7.974-38.966 21.09h-49.562c-2.115-10.225-11.191-17.935-22.034-17.935h-48.877c-10.843 0-19.918 7.71-22.034 17.935h-49.562c-8.554-13.116-23.095-21.09-38.965-21.09-25.662 0-46.54 20.878-46.54 46.54 0 25.657 20.878 46.53 46.54 46.53 15.875 0 30.416-7.975 38.967-21.09h49.561c2.049 9.909 10.636 17.453 21.032 17.911v24.144h-23.06c-18.112 0-33.264 12.906-36.746 30.005h-57.043c-3.095-8.732-11.433-15.005-21.211-15.005s-18.117 6.273-21.211 15.005h-34.59c-4.143 0-7.5 3.358-7.5 7.5 0 4.143 3.357 7.5 7.5 7.5h33.301v72h-77.5c-4.143 0-7.5 3.358-7.5 7.5 0 4.143 3.357 7.5 7.5 7.5h78.791c3.097 8.727 11.433 14.995 21.209 14.995s18.111-6.268 21.208-14.995h57.02c5.423 42.239 41.581 74.995 85.272 74.995 16.476 0 32.486-4.674 46.301-13.517 3.489-2.232 4.507-6.871 2.273-10.359-2.231-3.49-6.87-4.507-10.359-2.273-11.396 7.294-24.611 11.149-38.215 11.149-39.149 0-71-31.85-71-70.999v-83.501c0-12.406 10.094-22.5 22.5-22.5h97c12.406 0 22.5 10.094 22.5 22.5v83.501c0 15.061-4.653 29.446-13.458 41.603-2.43 3.354-1.68 8.044 1.675 10.474 3.353 2.429 8.043 1.681 10.474-1.675 8.502-11.738 13.798-25.192 15.604-39.402h35.473c1.782 0 3.232 1.45 3.232 3.233v68.057c-8.729 3.096-15 11.433-15 21.211 0 12.406 10.094 22.499 22.5 22.499h87c12.406 0 22.5-10.094 22.5-22.5 0-9.778-6.271-18.115-15-21.211zm-179.061-281.235h53.392c2.8 0 5.366-1.56 6.656-4.044 5.458-10.515 16.193-17.046 28.013-17.046 17.392 0 31.54 14.148 31.54 31.54 0 17.386-14.148 31.53-31.54 31.53-11.825 0-22.559-6.53-28.013-17.044-1.289-2.485-3.856-4.046-6.657-4.046h-53.392v-20.89zm-93.878 20.89h-53.391c-2.801 0-5.368 1.561-6.657 4.046-5.454 10.514-16.188 17.044-28.013 17.044-17.392 0-31.54-14.144-31.54-31.53 0-17.392 14.148-31.54 31.54-31.54 11.82 0 22.555 6.531 28.014 17.046 1.29 2.484 3.856 4.044 6.656 4.044h53.392v20.89zm-109.061 181.556c0 4.135-3.364 7.499-7.5 7.499s-7.5-3.364-7.5-7.499v-87.001c0-4.136 3.364-7.5 7.5-7.5s7.5 3.364 7.5 7.5zm70-7.496h-55v-72h55zm96.44-117.005h-20.88v-24.118h20.881v24.118zm-34.879-39.118c-4.136 0-7.5-3.364-7.5-7.5v-41.763c0-4.136 3.364-7.5 7.5-7.5h48.877c4.136 0 7.5 3.364 7.5 7.5v41.763c0 4.136-3.364 7.5-7.5 7.5zm145.207 156.118h-34.768v-72h65.203c32.972 0 59.797 26.825 59.797 59.797v97.203h-72v-66.767c0-10.053-8.179-18.233-18.232-18.233zm97.732 115h-87c-4.136 0-7.5-3.364-7.5-7.5s3.364-7.5 7.5-7.5h87c4.136 0 7.5 3.365 7.5 7.501 0 4.135-3.364 7.499-7.5 7.499zm-38.342 35.637c-2.893-2.74-7.424-2.74-10.316 0-5.047 4.781-49.314 47.535-49.314 75.875 0 30.025 24.436 54.453 54.472 54.453s54.472-24.428 54.472-54.453c0-28.34-44.267-71.094-49.314-75.875zm-5.158 115.328c-21.765 0-39.472-17.698-39.472-39.453 0-14.947 22.422-42.667 39.472-59.925 17.05 17.258 39.472 44.978 39.472 59.925 0 21.755-17.707 39.453-39.472 39.453z"/>
    </g>
</svg>