<svg height="50" width="50" viewBox="0 0 512 512" xmlns="http://www.w3.org/2000/svg">
    <g>
    <g>
        <path d="M429.443,397.168L410.63,209.042c-2.167-21.675-20.228-38.019-42.012-38.019h-74.509c-4.428,0-8.017,3.588-8.017,8.017
        s3.588,8.017,8.017,8.017h74.509c13.512,0,24.714,10.137,26.059,23.582l18.813,188.125c0.745,7.458-1.613,14.624-6.641,20.179
        c-5.029,5.556-11.925,8.615-19.417,8.615H69.669c-7.493,0-14.388-3.059-19.416-8.616c-5.028-5.555-7.386-12.721-6.641-20.179
        l8.205-82.052c0.44-4.405-2.774-8.334-7.18-8.775c-4.41-0.436-8.334,2.773-8.775,7.18l-8.205,82.052
        c-1.184,11.848,2.718,23.705,10.707,32.533c7.989,8.828,19.398,13.89,31.305,13.89h129.833l-4.598,59.778
        c-0.353,4.59,3.393,8.631,7.993,8.631h51.307c4.599,0,8.346-4.043,7.993-8.631l-4.598-59.778h129.832
        c11.906,0,23.316-5.062,31.305-13.89C426.725,420.873,430.627,409.015,429.443,397.168z M211.553,495.967l4.029-52.376h25.937
        l4.029,52.376H211.553z"/>
    </g>
    </g>
    <g>
    <g>
        <path d="M259.905,171.023H88.483c-21.784,0-39.845,16.344-42.013,38.019l-7.259,72.596c-0.44,4.405,2.774,8.334,7.18,8.775
        c0.271,0.027,0.54,0.041,0.807,0.041c4.069,0,7.554-3.086,7.968-7.22l7.259-72.596c1.345-13.443,12.547-23.581,26.059-23.581
        h171.422c4.428,0,8.017-3.588,8.017-8.017S264.333,171.023,259.905,171.023z"/>
    </g>
    </g>
    <g>
    <g>
        <path d="M391.023,342.046h-63.214l-2.895-69.478h57.558c4.428,0,8.017-3.588,8.017-8.017c0-4.428-3.588-8.017-8.017-8.017h-58.226
        l-2.174-52.176c-0.184-4.424-3.91-7.869-8.344-7.676c-4.424,0.184-7.861,3.92-7.676,8.344l2.146,51.508h-71.631v-51.841
        c0-4.428-3.588-8.017-8.017-8.017c-4.428,0-8.017,3.588-8.017,8.017v51.841h-71.632l2.146-51.508
        c0.185-4.424-3.252-8.16-7.676-8.344c-4.441-0.199-8.16,3.252-8.344,7.676l-2.173,52.176H74.63c-4.428,0-8.017,3.588-8.017,8.017
        c0,4.428,3.588,8.017,8.017,8.017h57.558l-2.895,69.478H66.079c-4.428,0-8.017,3.588-8.017,8.017c0,4.428,3.588,8.017,8.017,8.017
        h62.546l-2.146,51.508c-0.185,4.424,3.252,8.16,7.676,8.344c0.113,0.005,0.228,0.007,0.34,0.007c4.273,0,7.823-3.372,8.003-7.683
        l2.174-52.176h75.863v51.841c0,4.428,3.588,8.017,8.017,8.017c4.428,0,8.017-3.588,8.017-8.017v-51.841h75.863l2.174,52.176
        c0.18,4.31,3.729,7.683,8.003,7.683c0.112,0,0.227-0.002,0.34-0.007c4.424-0.184,7.861-3.92,7.676-8.344l-2.146-51.508h62.546
        c4.428,0,8.017-3.588,8.017-8.017C399.039,345.634,395.451,342.046,391.023,342.046z M220.534,342.046H145.34l2.895-69.478h72.3
        V342.046z M236.567,342.046v-69.478h72.299l2.895,69.478H236.567z"/>
    </g>
    </g>
    <g>
    <g>
        <path d="M399.574,34.205c-27.995,0-50.772,22.777-50.772,50.772c0,27.995,22.777,50.772,50.772,50.772
        s50.772-22.777,50.772-50.772C450.346,56.982,427.569,34.205,399.574,34.205z M399.574,119.716
        c-19.156,0-34.739-15.583-34.739-34.739s15.583-34.739,34.739-34.739s34.739,15.583,34.739,34.739
        S418.729,119.716,399.574,119.716z"/>
    </g>
    </g>
    <g>
    <g>
        <path d="M399.574,0c-4.428,0-8.017,3.588-8.017,8.017v8.551c0,4.428,3.588,8.017,8.017,8.017s8.017-3.588,8.017-8.017V8.017
        C407.59,3.588,404.002,0,399.574,0z"/>
    </g>
    </g>
    <g>
    <g>
        <path d="M372.312,21.724l-4.276-7.405c-2.214-3.834-7.119-5.147-10.951-2.934c-3.834,2.214-5.148,7.117-2.934,10.951l4.276,7.405
        c2.184,3.781,7.164,5.121,10.951,2.934C373.212,30.461,374.525,25.558,372.312,21.724z"/>
    </g>
    </g>
    <g>
    <g>
        <path d="M344.338,43.83l-7.405-4.276c-3.833-2.214-8.737-0.902-10.951,2.934c-2.214,3.834-0.9,8.737,2.934,10.951l7.405,4.276
        c3.787,2.187,8.767,0.847,10.951-2.934C349.485,50.947,348.172,46.044,344.338,43.83z"/>
    </g>
    </g>
    <g>
    <g>
        <path d="M331.165,76.96h-8.551c-4.428,0-8.017,3.588-8.017,8.017c0,4.428,3.588,8.017,8.017,8.017h8.551
        c4.428,0,8.017-3.588,8.017-8.017C339.181,80.549,335.593,76.96,331.165,76.96z"/>
    </g>
    </g>
    <g>
    <g>
        <path d="M347.272,115.173c-2.215-3.835-7.118-5.146-10.951-2.934l-7.405,4.276c-3.834,2.214-5.148,7.117-2.934,10.951
        c2.184,3.781,7.164,5.121,10.951,2.934l7.405-4.276C348.172,123.91,349.485,119.007,347.272,115.173z"/>
    </g>
    </g>
    <g>
    <g>
        <path d="M369.378,137.278c-3.833-2.213-8.737-0.901-10.951,2.934l-4.276,7.405c-3.023,5.233,0.855,12.026,6.935,12.026
        c2.771,0,5.464-1.438,6.95-4.009l4.276-7.405C374.525,144.395,373.212,139.492,369.378,137.278z"/>
    </g>
    </g>
    <g>
    <g>
        <path d="M399.574,145.37c-4.428,0-8.017,3.588-8.017,8.017v8.551c0,4.428,3.588,8.017,8.017,8.017s8.017-3.588,8.017-8.017v-8.551
        C407.59,148.958,404.002,145.37,399.574,145.37z"/>
    </g>
    </g>
    <g>
    <g>
        <path d="M444.997,147.617l-4.277-7.404c-2.214-3.835-7.119-5.146-10.951-2.934c-3.834,2.214-5.148,7.117-2.934,10.951
        c1.401,2.427,2.774,4.875,4.206,7.285c2.976,5.003,10.284,5.583,13.654,0.602C446.398,153.6,446.515,150.248,444.997,147.617z"/>
    </g>
    </g>
    <g>
    <g>
        <path d="M470.231,116.515l-7.405-4.276c-3.834-2.213-8.737-0.901-10.951,2.934c-2.214,3.834-0.9,8.737,2.934,10.951l7.405,4.276
        c1.262,0.729,2.641,1.075,4.001,1.075c3.733,0,7.055-2.675,7.844-6.324C474.788,121.784,473.213,118.237,470.231,116.515z"/>
    </g>
    </g>
    <g>
    <g>
        <path d="M476.534,76.96h-8.551c-4.428,0-8.017,3.588-8.017,8.017c0,4.428,3.588,8.017,8.017,8.017h8.551
        c4.428,0,8.017-3.588,8.017-8.017C484.551,80.549,480.961,76.96,476.534,76.96z"/>
    </g>
    </g>
    <g>
    <g>
        <path d="M473.165,42.489c-2.214-3.835-7.119-5.147-10.951-2.934c-2.318,1.338-4.637,2.678-6.955,4.016
        c-3.752,2.167-5.635,6.599-3.664,10.681c1.328,2.748,4.177,4.539,7.23,4.539c1.36,0,2.74-0.346,4.001-1.075l7.405-4.276
        C474.065,51.226,475.379,46.323,473.165,42.489z"/>
    </g>
    </g>
    <g>
    <g>
        <path d="M442.062,11.385c-3.833-2.214-8.737-0.901-10.951,2.934l-4.276,7.405c-2.215,3.834-0.9,8.737,2.934,10.951
        c3.787,2.187,8.767,0.847,10.951-2.934l4.276-7.405C447.21,18.501,445.896,13.598,442.062,11.385z"/>
    </g>
    </g>
</svg>